<?xml version="1.0" standalone="no"?>
<!DOCTYPE svg PUBLIC "-//W3C//DTD SVG 20010904//EN"
 "http://www.w3.org/TR/2001/REC-SVG-20010904/DTD/svg10.dtd">
<svg version="1.0" xmlns="http://www.w3.org/2000/svg"
 width="16.000000pt" height="16.000000pt" viewBox="0 0 16.000000 16.000000"
 preserveAspectRatio="xMidYMid meet">
<metadata>
Created by potrace 1.11, written by Peter Selinger 2001-2013
</metadata>
<g transform="translate(0.000000,16.000000) scale(0.001515,-0.001515)"
fill="#000000" stroke="none">
<path d="M2979 10540 c-1 -8 -2 -1932 -3 -4275 l-1 -4260 -725 -1 c-399 0
-729 1 -735 3 -10 3 -13 5788 -3 5798 3 3 16 -9 29 -26 13 -18 29 -37 34 -43
6 -6 55 -67 110 -136 55 -69 109 -135 120 -147 11 -12 25 -28 30 -35 14 -18
216 -269 237 -293 9 -11 42 -51 73 -90 180 -224 227 -280 232 -279 9 3 139
109 172 141 19 18 42 35 52 38 11 4 19 10 19 14 0 4 34 34 75 67 41 32 74 64
72 71 -1 7 -56 82 -122 168 -66 86 -124 164 -130 173 -5 9 -15 21 -21 27 -6 5
-31 37 -55 70 -24 33 -46 62 -49 65 -3 3 -17 21 -30 40 -13 19 -27 37 -30 40
-3 3 -34 43 -70 90 -35 47 -68 90 -73 95 -4 6 -43 57 -87 115 -43 58 -85 112
-92 120 -8 8 -54 69 -103 135 -50 66 -100 131 -112 145 -13 14 -23 28 -23 32
0 3 -6 13 -13 20 -12 12 -132 168 -268 348 -35 46 -70 91 -76 100 -7 8 -49 62
-92 120 -44 58 -84 110 -88 115 -5 6 -44 57 -88 115 -44 58 -86 111 -92 118
-11 11 -13 -758 -11 -3894 l3 -3908 1250 0 c688 -1 1257 0 1266 2 14 3 16 16
14 75 -1 40 2 80 7 89 4 9 4 19 0 22 -7 4 -9 114 -2 141 1 6 1 12 0 15 -6 15
-4 768 2 782 4 9 4 19 0 22 -7 4 -9 114 -2 141 1 6 1 12 0 15 -6 16 -4 2048 2
2062 5 9 4 19 0 22 -7 4 -9 114 -2 141 1 6 1 12 0 15 -6 15 -4 768 2 782 4 9
4 19 0 22 -7 4 -9 114 -2 141 1 6 1 12 0 15 -6 15 -4 2048 2 2062 5 9 4 19 0
22 -10 6 -8 127 1 143 4 7 4 14 0 16 -6 4 -9 545 -4 651 1 11 45 -40 111 -130
61 -82 116 -156 123 -164 7 -8 23 -31 37 -50 13 -19 27 -37 30 -40 3 -3 57
-75 120 -160 63 -85 117 -157 120 -160 3 -3 42 -55 87 -116 45 -62 88 -120 97
-130 8 -11 36 -48 63 -84 26 -36 51 -66 55 -68 5 -2 8 -10 8 -17 0 -7 3 -15 8
-17 4 -1 54 -66 111 -143 58 -77 109 -141 113 -143 4 -2 8 -8 8 -13 0 -6 25
-41 55 -79 30 -38 55 -73 55 -79 0 -5 4 -11 8 -13 5 -1 35 -39 68 -83 32 -44
62 -81 67 -83 4 -2 7 -10 7 -18 0 -8 3 -14 8 -14 4 0 18 -17 32 -38 14 -20 35
-48 48 -62 12 -14 22 -28 22 -31 0 -3 13 -22 30 -40 16 -19 30 -37 30 -41 0
-4 6 -13 13 -20 7 -7 37 -47 67 -88 30 -41 57 -77 60 -80 14 -13 300 -401 300
-406 0 -4 8 -14 18 -23 9 -9 28 -32 42 -52 14 -20 37 -51 52 -70 30 -39 155
-207 178 -239 14 -21 24 -34 63 -79 9 -12 17 -23 17 -26 0 -3 7 -13 15 -22 8
-10 34 -45 59 -78 25 -33 49 -64 53 -70 5 -5 33 -44 63 -85 30 -41 58 -79 62
-85 33 -42 96 -126 111 -146 49 -68 161 -218 181 -244 13 -16 49 -64 79 -105
31 -41 77 -104 104 -140 26 -36 50 -67 53 -70 3 -3 37 -48 75 -100 39 -52 73
-99 78 -105 4 -5 21 -28 37 -50 16 -22 36 -49 45 -60 8 -11 47 -63 86 -115 39
-52 80 -106 90 -120 11 -14 42 -56 71 -95 29 -38 58 -76 65 -83 7 -7 13 -17
13 -21 0 -4 8 -16 18 -27 9 -10 42 -53 72 -94 30 -41 58 -76 62 -78 5 -2 8
-10 8 -17 0 -7 3 -15 8 -17 9 -4 82 -94 82 -102 0 -6 31 -44 58 -72 6 -7 12
-17 12 -21 0 -5 8 -18 18 -29 23 -25 142 -184 142 -190 0 -2 8 -13 17 -23 21
-23 26 -29 73 -94 19 -27 47 -63 63 -82 15 -18 27 -38 27 -44 0 -6 4 -11 8
-11 5 0 24 -22 43 -50 19 -27 37 -50 42 -50 4 0 7 -4 7 -10 0 -8 63 -94 123
-170 7 -8 43 -58 82 -110 38 -52 74 -100 79 -107 6 -6 29 -37 51 -68 22 -31
52 -71 67 -89 15 -17 28 -34 28 -37 0 -4 13 -22 30 -40 16 -19 30 -37 30 -41
0 -4 6 -13 13 -20 7 -7 24 -29 37 -48 13 -19 35 -46 47 -60 13 -14 23 -28 23
-32 0 -3 6 -13 13 -20 7 -7 30 -38 52 -68 22 -30 44 -59 48 -65 5 -5 94 -125
198 -265 105 -140 198 -266 209 -280 10 -14 71 -94 134 -178 64 -85 116 -157
116 -162 0 -5 4 -10 8 -12 5 -1 28 -30 53 -63 24 -33 50 -66 57 -73 10 -11 12
786 10 3994 l-3 4008 -1250 0 c-687 1 -1257 0 -1266 -2 -14 -3 -16 -16 -14
-75 1 -40 -2 -80 -7 -89 -4 -9 -4 -19 0 -22 7 -4 9 -114 2 -141 -1 -5 -1 -12
0 -15 6 -16 4 -1408 -2 -1422 -5 -9 -4 -19 0 -22 10 -6 8 -127 -1 -143 -4 -7
-4 -14 1 -17 10 -6 9 -127 -1 -143 -4 -7 -4 -14 1 -17 7 -4 9 -114 2 -141 -1
-5 -1 -12 0 -15 1 -3 3 -171 3 -375 l2 -370 265 0 265 0 1 1235 0 1235 735 0
734 0 0 -2932 c0 -1613 -2 -2933 -5 -2933 -3 1 -19 20 -36 43 -18 23 -93 123
-168 222 -75 99 -145 191 -154 204 -9 13 -24 32 -33 41 -9 10 -18 22 -20 28
-2 6 -16 25 -31 44 -30 36 -72 91 -103 134 -19 25 -64 86 -83 109 -4 6 -34 46
-67 90 -33 44 -62 82 -65 85 -3 3 -17 21 -30 40 -13 19 -27 37 -30 40 -3 3
-102 133 -220 290 -249 331 -436 578 -453 600 -7 9 -46 61 -87 115 -41 55 -78
105 -82 110 -5 6 -49 63 -98 128 -50 64 -90 121 -90 126 0 5 -4 11 -8 13 -7 3
-165 207 -227 294 -11 15 -25 32 -30 38 -6 6 -35 45 -65 86 -30 41 -65 86 -77
100 -13 14 -23 28 -23 32 0 3 -6 13 -13 20 -7 7 -63 81 -124 163 -62 83 -119
157 -126 165 -16 17 -127 165 -142 189 -5 8 -22 29 -37 46 -16 16 -28 35 -28
42 0 6 -4 13 -8 15 -5 2 -50 59 -102 128 -52 69 -98 130 -102 135 -5 6 -32 42
-61 80 -28 39 -54 72 -57 75 -3 3 -39 50 -79 105 -41 55 -78 102 -83 103 -4 2
-8 10 -8 17 0 7 -3 15 -7 17 -8 3 -254 324 -308 402 -16 23 -44 60 -62 82 -17
21 -76 98 -129 169 -54 72 -102 132 -106 133 -4 2 -8 8 -8 13 0 5 -27 44 -60
87 -33 42 -64 82 -68 87 -13 19 -97 130 -105 140 -16 20 -258 341 -275 364 -9
13 -29 38 -44 56 -16 18 -28 37 -28 43 0 6 -4 12 -8 14 -5 2 -78 95 -162 208
-85 113 -158 210 -163 215 -4 6 -28 37 -53 70 -24 33 -53 71 -64 85 -11 14
-40 52 -64 85 -25 33 -49 65 -53 70 -5 6 -28 37 -53 70 -25 33 -47 62 -50 65
-13 13 -180 241 -182 247 0 5 -7 13 -14 18 -7 6 -37 44 -68 85 -30 41 -59 80
-64 85 -4 6 -37 48 -72 95 -35 47 -66 87 -69 90 -3 3 -10 12 -16 22 -10 16
-371 495 -386 513 -6 5 -9 3 -10 -5z"/>
<path d="M4044 5012 l-200 -200 92 -124 c51 -68 97 -127 101 -133 5 -5 19 -26
33 -45 13 -19 27 -37 30 -40 3 -3 57 -75 120 -160 63 -85 121 -161 128 -169 7
-8 21 -26 30 -40 20 -32 24 -37 62 -81 16 -19 30 -40 30 -47 0 -6 3 -13 8 -15
11 -5 112 -137 112 -147 0 -5 4 -11 8 -13 5 -1 36 -40 69 -84 33 -45 65 -88
72 -95 6 -8 50 -66 97 -129 46 -63 90 -122 97 -130 6 -8 37 -49 67 -90 30 -41
57 -77 60 -80 3 -3 30 -39 60 -80 30 -41 59 -81 65 -87 16 -20 40 -52 111
-148 80 -109 106 -143 119 -158 6 -7 22 -28 35 -47 13 -19 30 -41 37 -48 7 -7
13 -16 13 -20 0 -4 13 -21 28 -39 15 -17 81 -104 147 -193 66 -90 127 -171
135 -180 8 -10 22 -28 30 -40 13 -18 138 -186 201 -270 11 -14 36 -47 57 -75
20 -27 40 -51 45 -53 4 -2 7 -10 7 -18 0 -8 4 -14 8 -14 4 0 15 -12 24 -28 10
-15 27 -39 40 -54 13 -14 30 -36 38 -48 8 -13 33 -46 55 -75 22 -29 49 -64 60
-80 11 -15 38 -51 60 -80 22 -28 49 -64 60 -80 11 -15 45 -60 75 -100 30 -41
64 -86 75 -101 11 -15 26 -33 33 -40 6 -7 12 -16 12 -19 0 -4 17 -28 38 -53
20 -26 41 -51 45 -57 4 -5 100 -134 213 -285 113 -151 213 -284 222 -296 9
-11 22 -28 27 -37 6 -8 55 -75 110 -148 l100 -132 3 1528 c1 841 0 1531 -3
1534 -3 3 -108 5 -234 5 l-228 1 2 -460 c0 -253 -3 -468 -7 -477 -4 -9 -4 -19
0 -22 10 -6 8 -127 -1 -143 -4 -7 -4 -14 1 -17 10 -6 9 -127 -1 -143 -4 -7 -4
-14 1 -17 11 -6 8 -128 -3 -146 -5 -9 -4 -11 3 -6 13 8 16 -3 4 -21 -4 -7 -20
7 -42 38 -19 28 -50 67 -67 87 -18 20 -33 43 -33 50 0 6 -4 12 -8 12 -5 0 -36
37 -69 83 -62 84 -195 260 -216 287 -7 8 -75 98 -152 200 -77 102 -142 187
-145 190 -3 3 -17 21 -30 40 -14 19 -35 46 -47 60 -13 14 -23 28 -23 32 0 3
-6 13 -13 20 -7 7 -42 51 -77 98 -35 47 -69 90 -75 97 -31 37 -35 43 -28 43 4
0 3 4 -3 8 -6 4 -55 66 -109 137 -55 72 -102 132 -107 133 -4 2 -8 8 -8 13 0
5 -7 17 -15 26 -8 10 -78 101 -155 203 -77 102 -146 192 -153 200 -6 9 -59 78
-117 155 -57 77 -107 142 -110 145 -3 3 -17 21 -30 40 -13 19 -27 37 -30 40
-3 3 -18 23 -35 45 -16 22 -31 42 -34 45 -4 3 -17 21 -31 40 -13 19 -28 40
-32 45 -5 6 -44 57 -88 115 -44 58 -83 110 -87 115 -4 6 -35 46 -68 90 -33 44
-64 85 -70 91 -5 6 -37 47 -70 92 -32 45 -63 82 -67 82 -4 0 -8 6 -8 13 0 6
-18 32 -40 57 -22 25 -40 49 -40 53 0 4 -13 22 -30 40 -16 18 -30 35 -30 38 0
3 -10 17 -21 30 -12 13 -29 35 -38 49 -9 14 -24 34 -33 45 -9 11 -25 31 -35
44 l-19 23 -200 -200z"/>
</g>
</svg>
